Patient4_TMGait_0pt8_01_right_21_GRF.mot
version=1
nRows=65
nColumns=19
inDegrees=no
endheader
time	F1x	F1y	F1z	M1x	M1y	M1z	F2x	F2y	F2z	M2x	M2y	M2z	EC1x	EC1y	EC1z	EC2x	EC2y	EC2z
23.37	-6.6236	685.0129	66.7465	-228.8401	-75.6383	786.857	9.0055	-2.9068	6.1986	-1.7616	-7.3621	-8.3436	-0.0592	0.0182	-0.0073	-0.0462	0.0165	0.9585
23.3813	-3.518	685.9067	66.088	-229.0287	-73.0186	782.9184	5.8514	-0.61479	4.2579	-0.71813	-4.8842	-3.824	-0.0592	0.0182	-0.0073	-0.0462	0.0165	0.9585
23.3926	-0.3471	687.8451	65.4194	-229.4783	-70.3959	779.6662	3.2489	1.2929	2.5309	0.19214	-2.741	-0.097462	-0.0592	0.0182	-0.0073	-0.0462	0.0165	0.9585
23.4039	2.7945	691.0156	64.7985	-230.2889	-67.897	777.4905	1.2949	2.743	1.1561	0.91054	-1.0637	2.692	-0.0592	0.0182	-0.0073	-0.0462	0.0165	0.9585
23.4151	5.8974	695.3823	64.2837	-231.493	-65.5919	776.4662	-0.026021	3.753	0.16561	1.4299	0.13014	4.5883	-0.0592	0.0182	-0.0073	-0.0462	0.0165	0.9585
23.4264	9.0397	700.6394	63.8881	-233.0351	-63.4649	776.2762	-0.84642	4.3985	-0.49184	1.7721	0.91734	5.7728	-0.0592	0.0182	-0.0073	-0.0462	0.0165	0.9585
23.4377	12.3213	706.2811	63.602	-234.7866	-61.4648	776.3509	-1.2745	4.7327	-0.88628	1.9618	1.3835	6.3708	-0.0592	0.0182	-0.0073	-0.0462	0.0165	0.9585
23.449	15.8735	711.6759	63.4108	-236.5715	-59.5227	775.9788	-1.4626	4.7984	-1.1041	2.0173	1.6408	6.5072	-0.0592	0.0182	-0.0073	-0.0462	0.0165	0.9585
23.4603	19.8062	716.2648	63.2631	-238.2238	-57.5399	774.5177	-1.4895	4.5729	-1.2097	1.9355	1.7647	6.1907	-0.0592	0.0182	-0.0073	-0.0462	0.0165	0.9585
23.4716	24.2102	719.6896	63.1445	-239.6317	-55.4592	771.566	-1.4555	4.0232	-1.2566	1.7026	1.8259	5.4249	-0.0592	0.0182	-0.0073	-0.0462	0.0165	0.9585
23.4829	29.1496	721.9292	63.0359	-240.7826	-53.2317	767.1125	-1.3821	3.0457	-1.2747	1.2806	1.853	4.0869	-0.0592	0.0182	-0.0073	-0.0462	0.0165	0.9585
23.4941	34.6194	723.3147	62.9845	-241.7688	-50.8932	761.5272	-1.2991	1.5409	-1.2843	0.62983	1.8635	2.0727	-0.0592	0.0182	-0.0073	-0.0462	0.0165	0.9585
23.5054	40.5655	724.4847	63.0252	-242.7721	-48.4943	755.5471	-1.173	-0.59244	-1.285	-0.28412	1.8338	-0.75985	-0.0592	0.0182	-0.0073	-0.0462	0.0165	0.9585
23.5167	46.8521	726.2626	63.2448	-244.0177	-46.161	750.1417	-0.98915	-3.3443	-1.243	-1.4522	1.7076	-4.3927	-0.0592	0.0182	-0.0073	-0.0462	0.0165	0.9585
23.528	53.2712	729.386	63.7355	-245.6869	-44.0426	746.2282	-0.67668	-6.5678	-1.1169	-2.8018	1.4027	-8.6454	-0.0592	0.0182	-0.0073	-0.0462	0.0165	0.9585
23.5393	59.5634	734.2154	64.6028	-247.8232	-42.3186	744.368	-0.20479	-9.8211	-0.82361	-4.1412	0.80352	-12.9308	-0.0592	0.0182	-0.0073	-0.0462	0.0165	0.9585
23.5506	65.3866	740.5203	65.9081	-250.2719	-41.1582	744.5173	0.49551	-12.3066	-0.28107	-5.125	-0.2217	-16.2017	-0.0592	0.0182	-0.0073	-0.0462	0.0165	0.9585
23.5619	70.378	747.4775	67.6332	-252.6888	-40.6682	746.0207	1.4217	-12.6848	0.61092	-5.1907	-1.8015	-16.6944	-0.0592	0.0182	-0.0073	-0.0462	0.0165	0.9585
23.5731	74.2188	753.8032	69.6598	-254.5976	-40.8538	747.7219	2.5576	-9.0681	1.9331	-3.5446	-4.0219	-11.9576	-0.0592	0.0182	-0.0073	-0.0462	0.0165	0.9585
23.5844	76.7172	757.9911	71.7514	-255.4851	-41.5704	748.1719	3.7826	1.0473	3.7134	0.85268	-6.8512	1.3102	-0.0592	0.0182	-0.0073	-0.0462	0.0165	0.9585
23.5957	77.8826	758.6477	73.5876	-254.919	-42.5303	745.9762	4.8983	20.5697	5.898	9.2044	-10.0987	26.9328	-0.0592	0.0182	-0.0073	-0.0462	0.0165	0.9585
23.607	77.9261	754.6059	74.7901	-252.5858	-43.324	739.8798	5.5221	52.4855	8.2528	22.7236	-13.2659	68.8561	-0.0592	0.0182	-0.0073	-0.0462	0.0165	0.9585
23.6183	77.1793	744.9123	75.0072	-248.2778	-43.5243	728.7853	5.0774	99.0946	10.3058	42.321	-15.4525	130.0967	-0.0592	0.0182	-0.0073	-0.0462	0.0165	0.9585
23.6296	76.0214	728.6438	73.9197	-241.8194	-42.7119	711.6073	2.5181	161.0256	11.3205	68.1729	-15.2389	211.4829	-0.0592	0.0182	-0.0073	-0.0462	0.0165	0.9585
23.6409	74.6504	704.7358	71.2759	-232.9817	-40.5816	687.1611	-3.5512	235.6475	10.3546	99.0728	-10.8084	309.5471	-0.0592	0.0182	-0.0073	-0.0462	0.0165	0.9585
23.6521	73.0044	671.868	66.9316	-221.4223	-37.0188	654.0902	-14.031	315.8527	6.2791	131.96	-0.46404	414.9392	-0.0592	0.0182	-0.0073	-0.0462	0.0165	0.9585
23.6634	70.6768	628.7623	60.9442	-206.7633	-32.2141	611.1841	-27.6398	392.1122	-1.5316	162.8868	15.7813	514.9687	-0.0592	0.0182	-0.0073	-0.0462	0.0165	0.9585
23.6747	67.1335	574.9697	53.5811	-188.847	-26.5971	558.0683	-42.1406	459.0102	-12.0977	189.6131	35.7058	602.2429	-0.0592	0.0182	-0.0073	-0.0462	0.0165	0.9585
23.686	61.8863	511.4541	45.3405	-167.9317	-20.7783	495.7682	-55.8104	515.7769	-23.8422	211.8659	56.6093	675.5115	-0.0592	0.0182	-0.0073	-0.0462	0.0165	0.9585
23.6973	54.7868	440.4473	36.9363	-144.6716	-15.4525	426.4744	-67.2355	563.9144	-35.4809	230.3411	76.2384	736.5814	-0.0592	0.0182	-0.0073	-0.0462	0.0165	0.9585
23.7086	45.9141	365.3245	28.9907	-120.0897	-11.1459	353.4754	-75.6889	605.5046	-45.5616	245.9972	92.5123	788.182	-0.0592	0.0182	-0.0073	-0.0462	0.0165	0.9585
23.7199	35.7582	290.1298	22.001	-95.453	-8.15	280.6241	-80.8476	641.8504	-53.4305	259.4514	104.4696	832.0936	-0.0592	0.0182	-0.0073	-0.0462	0.0165	0.9585
23.7311	25.0446	219.1609	16.2088	-72.1467	-6.4366	212.0459	-82.9648	673.3603	-58.9114	270.9086	112.0227	869.0122	-0.0592	0.0182	-0.0073	-0.0462	0.0165	0.9585
23.7424	14.8728	156.2252	11.6527	-51.4308	-5.6799	151.3128	-82.5089	699.8153	-62.521	280.285	116.0182	898.8692	-0.0592	0.0182	-0.0073	-0.0462	0.0165	0.9585
23.7537	6.2644	103.8485	8.1893	-34.1607	-5.4001	100.8196	-80.1554	721.0292	-64.9898	287.4704	117.6634	921.6817	-0.0592	0.0182	-0.0073	-0.0462	0.0165	0.9585
23.765	-0.065497	62.9359	5.5596	-20.6686	-5.1213	61.3575	-76.5429	736.7431	-66.9038	292.363	118.0029	937.3599	-0.0592	0.0182	-0.0073	-0.0462	0.0165	0.9585
23.7763	-3.976	33.0851	3.5603	-10.8323	-4.6098	32.5609	-72.3545	747.0531	-68.6834	295.011	117.847	946.2657	-0.0592	0.0182	-0.0073	-0.0462	0.0165	0.9585
23.7876	-5.674	12.9136	2.055	-4.1996	-3.8151	13.0645	-68.058	752.2794	-70.2853	295.6002	117.4085	948.9004	-0.0592	0.0182	-0.0073	-0.0462	0.0165	0.9585
23.7989	-5.8185	0.67922	0.95278	-0.18466	-2.8688	1.2235	-64.0784	753.0343	-71.6071	294.443	116.7374	946.1255	-0.0592	0.0182	-0.0073	-0.0462	0.0165	0.9585
23.8101	-5.079	-5.574	0.24199	1.8643	-1.9839	-4.8454	-60.5024	750.1859	-72.3181	291.9669	115.5246	938.9878	-0.0592	0.0182	-0.0073	-0.0462	0.0165	0.9585
23.8214	-3.9825	-7.6957	-0.16934	2.5619	-1.248	-6.9051	-57.4085	744.7808	-72.3265	288.6461	113.678	928.7704	-0.0592	0.0182	-0.0073	-0.0462	0.0165	0.9585
23.8327	-2.8304	-7.2999	-0.35939	2.4383	-0.69178	-6.5356	-54.6993	737.8491	-71.635	284.9341	111.1741	916.6534	-0.0592	0.0182	-0.0073	-0.0462	0.0165	0.9585
23.844	-1.8202	-5.599	-0.4052	1.8927	-0.31049	-4.9126	-52.3488	730.3611	-70.3955	281.228	108.1768	903.7748	-0.0592	0.0182	-0.0073	-0.0462	0.0165	0.9585
23.8553	-1.0185	-3.4506	-0.36539	1.201	-0.078534	-2.8805	-50.2764	723.0894	-68.7911	277.8409	104.8764	890.9984	-0.0592	0.0182	-0.0073	-0.0462	0.0165	0.9585
23.8666	-0.44236	-1.3901	-0.2826	0.53166	0.032995	-0.93101	-48.4533	716.7668	-66.9886	275.0423	101.4641	879.1678	-0.0592	0.0182	-0.0073	-0.0462	0.0165	0.9585
23.8779	-0.061592	0.31189	-0.18293	-0.031459	0.059303	0.66917	-46.8227	711.9094	-65.1875	273.0249	98.1428	868.8351	-0.0592	0.0182	-0.0073	-0.0462	0.0165	0.9585
23.8891	0.15691	1.5546	-0.080942	-0.45803	0.02879	1.8476	-45.326	709.0299	-63.4297	271.965	94.9482	860.5625	-0.0592	0.0182	-0.0073	-0.0462	0.0165	0.9585
23.9004	0.25216	2.374	0.010737	-0.75709	-0.029761	2.6295	-43.8331	708.4417	-61.7934	271.9622	91.9098	854.6618	-0.0592	0.0182	-0.0073	-0.0462	0.0165	0.9585
23.9117	0.25815	2.857	0.089122	-0.95092	-0.097039	3.0893	-42.2347	710.2755	-60.2557	273.0376	88.9574	851.2495	-0.0592	0.0182	-0.0073	-0.0462	0.0165	0.9585
23.923	0.20675	3.0878	0.14585	-1.0631	-0.15485	3.3228	-40.3672	714.3609	-58.868	275.0887	86.079	850.0677	-0.0592	0.0182	-0.0073	-0.0462	0.0165	0.9585
23.9343	0.12878	3.1662	0.18084	-1.1238	-0.19635	3.416	-38.1232	720.1665	-57.6471	277.8796	83.2416	850.456	-0.0592	0.0182	-0.0073	-0.0462	0.0165	0.9585
23.9456	0.032748	3.1639	0.19138	-1.1552	-0.2201	3.4569	-35.3384	726.9298	-56.6341	281.0855	80.4244	851.4839	-0.0592	0.0182	-0.0073	-0.0462	0.0165	0.9585
23.9569	-0.052541	3.1443	0.17686	-1.177	-0.22018	3.498	-31.8781	733.7746	-55.8608	284.3478	77.6006	852.1197	-0.0592	0.0182	-0.0073	-0.0462	0.0165	0.9585
23.9681	-0.14598	3.1454	0.1489	-1.199	-0.21783	3.5825	-27.6064	739.9413	-55.2984	287.3588	74.6859	851.4828	-0.0592	0.0182	-0.0073	-0.0462	0.0165	0.9585
23.9794	-0.23017	3.1665	0.11539	-1.2214	-0.21926	3.6863	-22.4624	744.9504	-54.9323	289.9184	71.6368	849.0611	-0.0592	0.0182	-0.0073	-0.0462	0.0165	0.9585
23.9907	-0.33705	3.2108	0.089417	-1.2422	-0.24958	3.8109	-16.4985	748.6192	-54.6796	291.9455	68.3861	844.7339	-0.0592	0.0182	-0.0073	-0.0462	0.0165	0.9585
24.002	-0.46399	3.2108	0.088219	-1.2418	-0.32678	3.8511	-9.8674	751.0661	-54.5247	293.4648	64.9691	838.763	-0.0592	0.0182	-0.0073	-0.0462	0.0165	0.9585
24.0133	-0.64278	3.1325	0.11018	-1.2044	-0.45519	3.7691	-2.8347	752.5928	-54.427	294.5692	61.444	831.6523	-0.0592	0.0182	-0.0073	-0.0462	0.0165	0.9585
24.0246	-0.86155	2.8699	0.1718	-1.0934	-0.64329	3.419	4.2773	753.5679	-54.4158	295.3731	57.9622	824.0154	-0.0592	0.0182	-0.0073	-0.0462	0.0165	0.9585
24.0359	-1.1425	2.346	0.26015	-0.87944	-0.8783	2.7169	11.1305	754.3813	-54.5346	295.9928	54.6988	816.5031	-0.0592	0.0182	-0.0073	-0.0462	0.0165	0.9585
24.0471	-1.417	1.4462	0.3849	-0.52596	-1.1454	1.5091	17.4026	755.2947	-54.8258	296.501	51.8224	809.5887	-0.0592	0.0182	-0.0073	-0.0462	0.0165	0.9585
24.0584	-1.6675	0.10159	0.51294	-0.010087	-1.3985	-0.25635	22.8451	756.4143	-55.3404	296.9078	49.4799	803.5313	-0.0592	0.0182	-0.0073	-0.0462	0.0165	0.9585
24.0697	-1.7696	-1.7181	0.6373	0.67513	-1.5841	-2.6229	27.2917	757.5393	-56.08	297.1214	47.7379	798.19	-0.0592	0.0182	-0.0073	-0.0462	0.0165	0.9585
24.081	-1.6123	-3.9017	0.70495	1.4885	-1.5968	-5.4311	30.6727	758.2847	-57.054	296.9876	46.6317	793.1866	-0.0592	0.0182	-0.0073	-0.0462	0.0165	0.9585
24.0923	-0.97889	-6.1884	0.67522	2.3323	-1.3047	-8.3716	33.0472	758.2159	-58.2228	296.3529	46.1081	788.0256	-0.0592	0.0182	-0.0073	-0.0462	0.0165	0.9585
